<svg xmlns="http://www.w3.org/2000/svg"  viewBox="0 0 64 64" width="64px" height="64px"><linearGradient id="SVGID_1_" x1="32" x2="32" y1="6.872" y2="50.533" gradientUnits="userSpaceOnUse"><stop offset="0" stop-color="#1a6dff"/><stop offset="1" stop-color="#c822ff"/></linearGradient><path fill="url(#SVGID_1_)" d="M55.9,14.2L32.2,6.1C32,6,31.8,6,31.6,6.1L8.1,14.3c-0.4,0.2-0.7,0.6-0.7,1.1l3.7,30.8c0,0.3,0.2,0.6,0.5,0.8 l19.8,10.9c0.1,0.1,0.3,0.1,0.5,0.1c0.2,0,0.3,0,0.5-0.1l19.9-11c0.3-0.2,0.5-0.4,0.5-0.8l3.7-30.8C56.6,14.8,56.4,14.3,55.9,14.2z M51,45.3l-19,10.5L13,45.5L9.5,16l22.4-7.9l22.6,7.8L51,45.3z"/><linearGradient id="SVGID_2_" x1="31.999" x2="31.999" y1="6.872" y2="50.533" gradientUnits="userSpaceOnUse"><stop offset="0" stop-color="#1a6dff"/><stop offset="1" stop-color="#c822ff"/></linearGradient><path fill="url(#SVGID_2_)" d="M12.4,17c-0.4,0.2-0.7,0.6-0.7,1.1l3.1,25.6c0,0.3,0.2,0.6,0.5,0.8l16.1,8.8c0.1,0.1,0.3,0.1,0.5,0.1 c0.2,0,0.3,0,0.5-0.1l16.2-9c0.3-0.2,0.5-0.4,0.5-0.8L52.2,18c0.1-0.5-0.2-0.9-0.7-1.1l-19.3-6.6c-0.2-0.1-0.4-0.1-0.7,0L12.4,17z M31.9,12.3l18.2,6.3l-2.9,24.3l-15.3,8.5L16.8,43l-2.9-24.3L31.9,12.3z"/><linearGradient id="SVGID_3_" x1="32.255" x2="32.255" y1="14.915" y2="40.065" gradientUnits="userSpaceOnUse"><stop offset="0" stop-color="#6dc7ff"/><stop offset="1" stop-color="#e6abff"/></linearGradient><path fill="url(#SVGID_3_)" d="M31.9,14.2L31.9,14.2L31.9,14.2L31.9,14.2L31.9,14.2L20,41h4.4l2.4-6h10.9l2.6,6h4.4L31.9,14.2z M32,22.4	l4.1,8.6l-7.7,0L32,22.4z"/></svg>